:SAMPLES-PER-SECOND 30
:FULLY-SPECIFIED
:DEGREES
219
root  60.1377 24.7545 -2.00867 -24.141 -0.353553 -5.21787
RightUpLeg  -54.4202 -14.2528 2.43457
RightLeg  76.9977 -1.51309 -9.13197
RightFoot  0.813278 0.388111 -3.55491
RightToes  0.000482159 0.542163 -0.142577
Spine  44.2034 -3.42921 9.54248
Spine1  -0.571075 -0.357469 -1.44264
HEad  -16.9987 3.78841 -3.46405
LeftShoulder1  10.9443 -16.1833 -48.5324
LeftArm  -3.67828 -1.80857 -21.7044
LeftForeArm  39.9227 -7.71064 -7.75783
LeftHand  -0.25398 0.0180481 5.50724
RightShoulder  6.10796 11.2738 35.3615
RightArm  -10.1756 -0.183893 35.2422
RightForeArm  13.129 10.5795 5.95122
RightHand  -2.02141 6.7412 -19.5718
LeftUpLeg  -56.4236 6.56883 2.83138
LeftLeg  75.2533 1.31905 6.99143
LeftFoot  4.07639 -0.615371 4.30859
LeftToes  1.06245e-005 4.65855e-005 -8.18503e-006
220
root  60.1288 24.7587 -2.01263 -24.1816 -0.40301 -5.15863
RightUpLeg  -54.3703 -14.156 2.40166
RightLeg  76.9779 -1.51667 -9.14663
RightFoot  0.828455 0.388471 -3.55056
RightToes  0.000482159 0.542163 -0.142577
Spine  44.3283 -3.4334 9.56561
Spine1  -0.591904 -0.324892 -1.48244
HEad  -16.8638 3.81235 -3.81782
LeftShoulder1  10.9926 -16.2328 -48.6252
LeftArm  -3.12356 -0.822479 -21.6547
LeftForeArm  39.5731 -8.68518 -7.6825
LeftHand  -0.25398 0.0180481 5.50724
RightShoulder  6.03658 11.2246 35.0212
RightArm  -10.3451 -0.767977 35.8901
RightForeArm  13.336 10.8901 5.86542
RightHand  -1.98833 6.72706 -19.2852
LeftUpLeg  -56.3504 6.62225 2.82744
LeftLeg  75.2239 1.3216 6.99592
LeftFoot  4.07468 -0.616253 4.3124
LeftToes  1.06245e-005 4.65855e-005 -8.18503e-006
221
root  60.1213 24.7609 -2.0132 -24.185 -0.426453 -5.1124
RightUpLeg  -54.3709 -14.1095 2.38792
RightLeg  76.9785 -1.52072 -9.17046
RightFoot  0.829082 0.391816 -3.59149
RightToes  0.000482159 0.542163 -0.142577
Spine  44.4148 -3.45133 9.68084
Spine1  -0.739342 -0.258121 -1.64713
HEad  -16.4877 3.81569 -3.93221
LeftShoulder1  11.0285 -16.3162 -48.5781
LeftArm  -2.54211 0.0915048 -21.7559
LeftForeArm  39.0348 -9.76897 -7.503
LeftHand  -0.25398 0.0180481 5.50724
RightShoulder  5.9691 11.1744 34.7063
RightArm  -10.1951 -1.3862 36.467
RightForeArm  13.4902 11.4006 5.81046
RightHand  -1.94355 6.70026 -18.9079
LeftUpLeg  -56.3306 6.67117 2.8091
LeftLeg  75.2151 1.32023 6.98093
LeftFoot  4.0793 -0.615154 4.28687
LeftToes  1.06245e-005 4.65855e-005 -8.18503e-006
222
root  60.1148 24.7593 -2.01215 -24.1512 -0.42629 -5.07653
RightUpLeg  -54.4248 -14.0902 2.38188
RightLeg  76.9986 -1.52407 -9.19787
RightFoot  0.823404 0.393934 -3.61227
RightToes  0.000482159 0.542163 -0.142577
Spine  44.3851 -3.42618 9.80177
Spine1  -0.757463 -0.172876 -1.71352
HEad  -16.1864 3.85053 -3.96154
LeftShoulder1  11.0516 -16.3486 -48.6008
LeftArm  -1.88389 0.587806 -21.8562
LeftForeArm  38.3418 -10.712 -7.3346
LeftHand  -0.25398 0.0180481 5.50724
RightShoulder  5.86223 11.049 34.3275
RightArm  -9.71198 -1.7992 36.9686
RightForeArm  12.9936 12.0342 5.8146
RightHand  -1.92446 6.63695 -18.8229
LeftUpLeg  -56.3691 6.71241 2.77598
LeftLeg  75.2202 1.31682 6.95834
LeftFoot  4.08844 -0.614924 4.27616
LeftToes  1.06245e-005 4.65855e-005 -8.18503e-006
223
root  60.1085 24.7559 -2.0117 -24.1218 -0.398162 -5.03537
RightUpLeg  -54.4756 -14.0833 2.34428
RightLeg  77.0225 -1.52326 -9.20654
RightFoot  0.815741 0.392474 -3.5765
RightToes  0.000482159 0.542163 -0.142577
Spine  44.2971 -3.35995 9.84303
Spine1  -0.667073 -0.110141 -1.61434
HEad  -15.9974 3.88552 -4.06512
LeftShoulder1  11.0674 -16.3236 -48.7323
LeftArm  -1.28888 0.69413 -21.9337
LeftForeArm  37.6529 -11.4053 -7.21477
LeftHand  -0.25398 0.0180481 5.50724
RightShoulder  5.75949 10.9123 34.0012
RightArm  -9.22013 -1.93037 37.3108
RightForeArm  12.0663 12.6647 5.81788
RightHand  -1.94627 6.601 -19.0815
LeftUpLeg  -56.4086 6.73556 2.72118
LeftLeg  75.2149 1.31468 6.95155
LeftFoot  4.10157 -0.617123 4.30433
LeftToes  1.06245e-005 4.65855e-005 -8.18503e-006
224
root  60.1032 24.7534 -2.01064 -24.1105 -0.323438 -4.98619
RightUpLeg  -54.5031 -14.1182 2.26097
RightLeg  77.0483 -1.5148 -9.1874
RightFoot  0.801542 0.390755 -3.53619
RightToes  0.000482159 0.542163 -0.142577
Spine  44.2416 -3.31617 9.8012
Spine1  -0.71894 -0.113973 -1.49345
HEad  -15.7323 3.93035 -4.13807
LeftShoulder1  11.0753 -16.3113 -48.7978
LeftArm  -1.14058 0.709989 -22.0969
LeftForeArm  37.2535 -11.8278 -7.08356
LeftHand  -0.25398 0.0180481 5.50724
RightShoulder  5.75414 10.9246 33.9304
RightArm  -8.97496 -1.90415 37.3974
RightForeArm  11.4143 13.1164 5.78788
RightHand  -1.96824 6.59967 -19.2906
LeftUpLeg  -56.4246 6.72055 2.63566
LeftLeg  75.1942 1.31316 6.95219
LeftFoot  4.11668 -0.618644 4.3227
LeftToes  1.06245e-005 4.65855e-005 -8.18503e-006
225
root  60.0991 24.7507 -2.00936 -24.0828 -0.254393 -4.92577
RightUpLeg  -54.555 -14.1492 2.17382
RightLeg  77.0821 -1.50464 -9.16519
RightFoot  0.79143 0.391479 -3.53376
RightToes  0.000482159 0.542163 -0.142577
Spine  44.1964 -3.30878 9.72568
Spine1  -0.929698 -0.157175 -1.48757
HEad  -15.3654 4.00491 -3.99403
LeftShoulder1  11.0677 -16.3452 -48.6805
LeftArm  -1.38514 0.734053 -22.3674
LeftForeArm  37.1935 -12.09 -6.92165
LeftHand  -0.25398 0.0180481 5.50724
RightShoulder  5.83985 11.0896 34.0649
RightArm  -8.82869 -1.73566 37.3282
RightForeArm  11.1581 13.2809 5.78722
RightHand  -1.96528 6.5897 -19.2778
LeftUpLeg  -56.4549 6.7273 2.5357
LeftLeg  75.1791 1.30874 6.92887
LeftFoot  4.12459 -0.618248 4.3117
LeftToes  1.06245e-005 4.65855e-005 -8.18503e-006
226
root  60.0956 24.7455 -2.00813 -24.0093 -0.266942 -4.84096
RightUpLeg  -54.6735 -14.0864 2.12046
RightLeg  77.1207 -1.49802 -9.16471
RightFoot  0.804372 0.392784 -3.54041
RightToes  0.000482159 0.542163 -0.142577
Spine  44.1157 -3.29337 9.65838
Spine1  -1.11172 -0.172907 -1.57114
HEad  -15.0367 4.03107 -3.66941
LeftShoulder1  11.054 -16.3945 -48.498
LeftArm  -1.35221 0.619294 -22.6133
LeftForeArm  37.114 -12.3872 -6.80056
LeftHand  -0.25398 0.0180481 5.50724
RightShoulder  5.9047 11.2316 34.1186
RightArm  -8.58879 -1.32135 37.3524
RightForeArm  10.9739 13.2326 5.8525
RightHand  -1.95778 6.5545 -19.2608
LeftUpLeg  -56.5335 6.82671 2.44322
LeftLeg  75.1819 1.30263 6.88807
LeftFoot  4.1296 -0.61931 4.32369
LeftToes  1.06245e-005 4.65855e-005 -8.18503e-006
227
root  60.093 24.7384 -2.00724 -23.9192 -0.316275 -4.74477
RightUpLeg  -54.8188 -13.978 2.07918
RightLeg  77.16 -1.4927 -9.17114
RightFoot  0.829752 0.392439 -3.52161
RightToes  0.000482159 0.542163 -0.142577
Spine  44.0678 -3.26674 9.62116
Spine1  -1.27807 -0.16009 -1.63236
HEad  -14.809 3.91557 -3.36912
LeftShoulder1  11.063 -16.4392 -48.4277
LeftArm  -0.703125 0.309527 -22.7448
LeftForeArm  36.725 -12.7741 -6.76822
LeftHand  -0.25398 0.0180481 5.50724
RightShoulder  5.89156 11.2614 33.95
RightArm  -8.33173 -0.760828 37.5519
RightForeArm  10.8606 13.2076 5.9102
RightHand  -1.95062 6.49313 -19.287
LeftUpLeg  -56.6334 6.94346 2.35629
LeftLeg  75.1896 1.3006 6.87198
LeftFoot  4.13251 -0.623372 4.38247
LeftToes  1.06245e-005 4.65855e-005 -8.18503e-006
228
root  60.0907 24.7321 -2.00655 -23.8716 -0.299321 -4.68273
RightUpLeg  -54.9071 -13.9549 2.0246
RightLeg  77.2009 -1.48436 -9.16369
RightFoot  0.834835 0.391319 -3.49128
RightToes  0.000482159 0.542163 -0.142577
Spine  44.1206 -3.25182 9.6132
Spine1  -1.55163 -0.161575 -1.58052
HEad  -14.7024 3.72074 -3.22696
LeftShoulder1  11.1137 -16.4958 -48.5123
LeftArm  0.085783 -0.115598 -22.8201
LeftForeArm  36.2351 -13.1122 -6.77861
LeftHand  -0.25398 0.0180481 5.50724
RightShoulder  5.85035 11.263 33.6689
RightArm  -8.05402 -0.334281 37.7612
RightForeArm  10.8773 13.4739 5.88269
RightHand  -1.92853 6.44558 -19.1497
LeftUpLeg  -56.6957 6.95527 2.27994
LeftLeg  75.1938 1.30205 6.88447
LeftFoot  4.132 -0.627153 4.4365
LeftToes  1.06245e-005 4.65855e-005 -8.18503e-006
229
root  60.0858 24.7287 -2.00425 -23.8761 -0.248507 -4.67345
RightUpLeg  -54.9174 -13.9904 1.99525
RightLeg  77.2348 -1.47878 -9.16626
RightFoot  0.816165 0.391466 -3.48151
RightToes  0.000482159 0.542163 -0.142577
Spine  44.1794 -3.20511 9.61134
Spine1  -1.77668 -0.152912 -1.37523
HEad  -14.8187 3.60279 -3.23901
LeftShoulder1  11.1916 -16.5559 -48.7074
LeftArm  0.556959 -0.680654 -22.8959
LeftForeArm  35.9798 -13.3351 -6.77492
LeftHand  -0.25398 0.0180481 5.50724
RightShoulder  5.80361 11.2749 33.3225
RightArm  -7.44503 -0.109749 37.8872
RightForeArm  10.5792 14.1959 5.78506
RightHand  -1.90884 6.48252 -18.9062
LeftUpLeg  -56.7044 6.91629 2.25274
LeftLeg  75.2054 1.29726 6.88036
LeftFoot  4.12619 -0.62791 4.44484
LeftToes  1.06245e-005 4.65855e-005 -8.18503e-006
230
root  60.0773 24.7286 -1.99978 -23.8806 -0.275664 -4.68108
RightUpLeg  -54.911 -13.949 2.03034
RightLeg  77.2458 -1.48082 -9.20634
RightFoot  0.801553 0.393206 -3.49763
RightToes  0.000482159 0.542163 -0.142577
Spine  44.1271 -3.08682 9.60218
Spine1  -1.72198 -0.0849918 -1.08221
HEad  -15.1619 3.59711 -3.31561
LeftShoulder1  11.2568 -16.5807 -48.9322
LeftArm  0.940387 -1.43933 -22.9511
LeftForeArm  35.9388 -13.602 -6.72705
LeftHand  -0.25398 0.0180481 5.50724
RightShoulder  5.70396 11.2025 32.8395
RightArm  -6.30569 0.104184 38.0442
RightForeArm  9.58582 15.3507 5.64161
RightHand  -1.91367 6.56422 -18.8292
LeftUpLeg  -56.6999 6.96191 2.28938
LeftLeg  75.2262 1.28814 6.84584
LeftFoot  4.10823 -0.625741 4.42628
LeftToes  1.06245e-005 4.65855e-005 -8.18503e-006
231
root  60.0699 24.731 -1.99444 -23.8511 -0.3458 -4.66384
RightUpLeg  -54.9365 -13.8543 2.07073
RightLeg  77.2437 -1.48465 -9.24995
RightFoot  0.796187 0.394741 -3.51189
RightToes  0.000482159 0.542163 -0.142577
Spine  44.0386 -2.98272 9.57378
Spine1  -1.5731 -0.0246228 -0.866477
HEad  -15.478 3.62707 -3.33351
LeftShoulder1  11.2767 -16.575 -49.0333
LeftArm  1.5248 -2.17981 -22.9873
LeftForeArm  35.9174 -14.0652 -6.60174
LeftHand  -0.25398 0.0180481 5.50724
RightShoulder  5.58281 11.0627 32.3814
RightArm  -4.87535 0.375695 38.2192
RightForeArm  8.24973 16.7164 5.44231
RightHand  -1.91708 6.54584 -18.889
LeftUpLeg  -56.7152 7.04642 2.32287
LeftLeg  75.236 1.28461 6.8291
LeftFoot  4.08802 -0.622102 4.40575
LeftToes  1.06245e-005 4.65855e-005 -8.18503e-006
